<?xml version="1.0" encoding="UTF-8"?>
<svg version="1.1" xmlns="http://www.w3.org/2000/svg" width="1560" height="473">
<path d="M0 0 C514.8 0 1029.6 0 1560 0 C1560 156.09 1560 312.18 1560 473 C1045.2 473 530.4 473 0 473 C0 316.91 0 160.82 0 0 Z " fill="#FDFDFD" transform="translate(0,0)"/>
<path d="M0 0 C1.11435686 0.90425139 2.21823648 1.82153398 3.3125 2.75 C4.1271875 3.37648437 4.941875 4.00296875 5.78125 4.6484375 C25.40287039 20.93922727 33.51971303 50.25364672 35.79467773 74.61083984 C37.85706754 101.03442806 36.53824803 126.76764547 27.3125 151.75 C26.9103125 152.87921875 26.508125 154.0084375 26.09375 155.171875 C18.87545597 173.9979662 4.48727385 189.90311952 -13.734375 198.5 C-31.91227349 206.19434857 -51.12957781 205.63069744 -69.24609375 198.3125 C-78.29457489 194.18964332 -84.80442586 188.80798036 -91.6875 181.75 C-92.35394531 181.09257812 -93.02039063 180.43515625 -93.70703125 179.7578125 C-105.08831302 167.78562896 -111.67765814 150.83890554 -115.5 135.0625 C-115.70713623 134.207771 -115.91427246 133.35304199 -116.12768555 132.47241211 C-118.81556325 120.65730365 -118.9008727 108.82281271 -118.92773438 96.76416016 C-118.93740365 94.15103871 -118.96850104 91.53871805 -119 88.92578125 C-119.1887609 58.7719399 -111.08420189 28.49065408 -90.09375 6.0625 C-65.24519874 -17.81792589 -27.65791936 -20.53390983 0 0 Z " fill="#2C2B29" transform="translate(119.6875,128.25)"/>
<path d="M0 0 C88.29464286 0 88.29464286 0 107.1875 17.75 C111.30821376 22.07552061 114.33863214 26.66151654 117 32 C117.41507813 32.81210938 117.83015625 33.62421875 118.2578125 34.4609375 C123.24867537 46.36222589 123.2627833 63.29233366 118.9375 75.4375 C114.53631406 84.74817786 108.58679344 92.05696463 99.0625 96.3125 C98.381875 96.539375 97.70125 96.76625 97 97 C99.2248543 99.2248543 100.55214911 99.59698555 103.5 100.5625 C113.00993759 104.27302478 120.33603826 112.0229702 125 121 C132.19840901 137.80400302 132.42406792 157.92736574 125.8125 175 C118.92872064 190.46849258 109.61418847 200.26403468 94 207 C93.26394531 207.34160156 92.52789063 207.68320312 91.76953125 208.03515625 C62.86740038 218.10402272 30.60580403 211 0 211 C0 141.37 0 71.74 0 0 Z " fill="#2D2C2A" transform="translate(842,118)"/>
<path d="M0 0 C34.92171031 -0.0439315 69.8434226 -0.08616109 104.76513672 -0.12695312 C105.44848939 -0.12775151 106.13184205 -0.12854989 106.83590238 -0.12937246 C180.05287255 -0.21486482 253.26984342 -0.28865122 326.48684692 -0.33874512 C328.11305848 -0.33986072 329.73927004 -0.34097633 331.36548159 -0.34209196 C365.49954168 -0.36547307 399.63360265 -0.38720684 433.76766498 -0.40703743 C450.91414871 -0.41700064 468.06063223 -0.42728043 485.20711559 -0.43785953 C487.79360967 -0.43945352 490.38010377 -0.44103847 492.96659786 -0.44262304 C532.79840487 -0.46710501 572.63019232 -0.49837944 612.4619751 -0.54931641 C613.74675677 -0.55095919 613.74675677 -0.55095919 615.05749363 -0.55263516 C628.86728815 -0.5703343 642.67708192 -0.58860311 656.48687559 -0.60694752 C696.25982055 -0.65977173 736.03275048 -0.70838853 775.80572701 -0.72911835 C776.62350382 -0.72954663 777.44128063 -0.72997491 778.28383856 -0.73041617 C796.23536526 -0.73974195 814.18689215 -0.74690093 832.13842053 -0.75200786 C839.36134502 -0.75410086 846.5842694 -0.75650582 853.80719376 -0.75901794 C854.99297535 -0.75941907 854.99297535 -0.75941907 856.20271212 -0.7598283 C881.67984734 -0.76860193 907.15687091 -0.80277742 932.63396106 -0.85025767 C958.29490029 -0.89796439 983.95573115 -0.92079713 1009.61671585 -0.9089919 C1013.16183492 -0.90736723 1016.70695404 -0.90602818 1020.25207329 -0.90486145 C1021.29450069 -0.90450288 1021.29450069 -0.90450288 1022.35798723 -0.90413707 C1033.36753914 -0.90109042 1044.37686193 -0.92498002 1055.38635139 -0.9600789 C1066.20913804 -0.99402999 1077.03161376 -0.99885952 1087.85442798 -0.97465451 C1093.64550237 -0.96253795 1099.43581006 -0.96324847 1105.22680329 -0.99906546 C1110.49342029 -1.03139265 1115.75867098 -1.02700825 1121.02526651 -0.99311981 C1122.92039362 -0.9873975 1124.81562051 -0.99514312 1126.71061984 -1.01788196 C1142.55095817 -1.19593159 1142.55095817 -1.19593159 1148.96259034 3.90991259 C1150.32461222 5.25707253 1151.67263667 6.61867812 1153 8 C1155.22558853 9.58833419 1157.51562576 10.91937316 1159.875 12.3125 C1163.43000594 14.42408787 1166.68214844 16.51161133 1170 19 C783.9 19 397.8 19 0 19 C0 12.73 0 6.46 0 0 Z " fill="#343331" transform="translate(2,78)"/>
<path d="M0 0 C1.04921631 -0.01417969 2.09843262 -0.02835937 3.17944336 -0.04296875 C13.41569347 0.02132426 22.3610341 2.38302613 31.4375 7.0625 C32.11941406 7.41135254 32.80132813 7.76020508 33.50390625 8.11962891 C51.48978053 17.60223829 61.75045785 33.44164229 67.8125 52.4375 C69.93759881 60.04853671 70.375 66.35929138 70.375 74.375 C58.495 74.375 46.615 74.375 34.375 74.375 C33.2921875 70.229375 33.2921875 70.229375 32.1875 66 C30.28929377 59.0438599 28.26397403 52.51486506 24.375 46.375 C23.97023438 45.73433594 23.56546875 45.09367187 23.1484375 44.43359375 C18.61625889 38.29792505 11.77918413 34.26945984 4.25976562 33.02490234 C-7.40102064 31.81975146 -16.06202792 33.9418304 -25.6640625 40.83984375 C-38.79389738 52.20553782 -42.10441649 73.0870474 -43.31640625 89.38671875 C-43.99180009 100.70387055 -43.85899644 112.04551898 -43.625 123.375 C-43.61098145 124.15053223 -43.59696289 124.92606445 -43.58251953 125.72509766 C-43.16731926 143.09930267 -38.30199455 162.31208999 -26.00390625 175.0546875 C-17.83850418 182.63549959 -8.77932378 184.64462331 2.0546875 184.5234375 C11.53262288 184.09971804 18.92537767 181.25438815 25.5625 174.3125 C34.66534963 162.8781303 35.30143448 148.33135181 36.375 134.375 C19.215 134.375 2.055 134.375 -15.625 134.375 C-15.625 123.815 -15.625 113.255 -15.625 102.375 C13.415 102.375 42.455 102.375 72.375 102.375 C72.375 175.23233696 72.375 175.23233696 49.125 200.125 C33.96074899 214.68997648 14.38654621 218.05286307 -5.7890625 217.6796875 C-23.95576046 216.96529996 -41.16047524 210.24420869 -54.015625 197.20703125 C-80.03487556 168.96757518 -81.99813712 129.14048622 -80.8515625 92.65917969 C-79.65259719 65.30778354 -69.97011509 37.33344055 -50.171875 17.9765625 C-35.52395354 5.12673918 -19.21894827 0.20220125 0 0 Z " fill="#2C2B29" transform="translate(1237.625,114.625)"/>
<path d="M0 0 C12.21 0 24.42 0 37 0 C37.33 29.04 37.66 58.08 38 88 C42.95 80.08 47.9 72.16 53 64 C60 53 60 53 63.45703125 47.58203125 C67.2381451 41.64058259 70.9636797 35.66496313 74.6875 29.6875 C79.20079756 22.44695627 83.74260552 15.22754793 88.375 8.0625 C88.83350342 7.35246826 89.29200684 6.64243652 89.7644043 5.91088867 C92.86989885 1.13010115 92.86989885 1.13010115 94 0 C97.10251201 -0.08874135 100.1826812 -0.11518455 103.28515625 -0.09765625 C104.21597519 -0.0962413 105.14679413 -0.09482635 106.1058197 -0.09336853 C109.09141191 -0.08775172 112.07693029 -0.0751964 115.0625 -0.0625 C117.08137913 -0.05748716 119.10025943 -0.05292388 121.11914062 -0.04882812 C126.07945572 -0.03777683 131.03971532 -0.02050095 136 0 C134.76054927 3.34862761 133.37541675 6.14947476 131.3046875 9.0546875 C130.76215332 9.82208252 130.21961914 10.58947754 129.66064453 11.38012695 C129.07138184 12.20343506 128.48211914 13.02674316 127.875 13.875 C126.59851146 15.67806914 125.32248767 17.48146736 124.046875 19.28515625 C123.38107422 20.22375488 122.71527344 21.16235352 122.02929688 22.12939453 C118.70058328 26.83813063 115.41364455 31.57573417 112.125 36.3125 C110.78524005 38.23964159 109.44539551 40.16672439 108.10546875 42.09375 C107.43435059 43.05925781 106.76323242 44.02476562 106.07177734 45.01953125 C102.52788559 50.1177908 98.98276567 55.2151958 95.4375 60.3125 C94.79506348 61.23651611 94.15262695 62.16053223 93.49072266 63.11254883 C92.56525635 64.44322388 92.56525635 64.44322388 91.62109375 65.80078125 C91.02925293 66.66268066 90.43741211 67.52458008 89.82763672 68.41259766 C88.56567644 70.1991666 87.25635824 71.95288333 85.91064453 73.67724609 C85.2504834 74.54043457 84.59032227 75.40362305 83.91015625 76.29296875 C83.30437744 77.05504639 82.69859863 77.81712402 82.07446289 78.60229492 C80.72154145 80.99763532 80.72154145 80.99763532 81.55883789 83.74975586 C83.34522753 87.77858954 85.20070412 91.75764398 87.1484375 95.7109375 C87.5571257 96.54768005 87.9658139 97.38442261 88.3868866 98.246521 C89.71252273 100.95786074 91.04363928 103.66646728 92.375 106.375 C93.29181377 108.2471212 94.2083981 110.11935478 95.12475586 111.99169922 C100.356564 122.67087318 105.63603763 133.32471604 110.98291016 143.94677734 C114.60940831 151.16770345 118.09756443 158.44897482 121.55224609 165.75341797 C124.37585721 171.69203767 127.2828903 177.58331142 130.24609375 183.453125 C130.79612564 184.54433655 130.79612564 184.54433655 131.35726929 185.65759277 C133.1867959 189.28502716 135.02336305 192.90865023 136.87011719 196.52734375 C137.54252941 197.85666377 138.21473957 199.18608603 138.88671875 200.515625 C139.20176865 201.1270636 139.51681854 201.7385022 139.84141541 202.36846924 C141.23402337 205.13701782 142 206.85094422 142 210 C129.13 210 116.26 210 103 210 C96.35450848 196.78047386 89.73555211 183.56313343 83.38647461 170.19897461 C80.61653231 164.37199523 77.82250475 158.55746677 75.00390625 152.75390625 C74.65353806 152.03242905 74.30316986 151.31095184 73.94218445 150.56761169 C72.54135098 147.68410087 71.14000111 144.80084502 69.73641968 141.91867065 C66.12608922 134.50499801 62.53682183 127.08149308 59.015625 119.625 C58.55962921 118.66956299 58.55962921 118.66956299 58.09442139 117.69482422 C56 113.23153897 56 113.23153897 56 111 C53.1584923 113.67400107 51.05689118 116.26016038 49.08984375 119.625 C48.57486328 120.49640625 48.05988281 121.3678125 47.52929688 122.265625 C46.74135742 123.61914062 46.74135742 123.61914062 45.9375 125 C44.88612367 126.79284636 43.8328054 128.58455565 42.77734375 130.375 C42.31577881 131.16648438 41.85421387 131.95796875 41.37866211 132.7734375 C40 135 40 135 38.44085693 136.69769287 C36.44149172 139.89242559 36.60044659 142.30891019 36.56762695 146.06347656 C36.5574353 146.76631775 36.54724365 147.46915894 36.53674316 148.19329834 C36.50662464 150.5091551 36.49734934 152.82459816 36.48828125 155.140625 C36.47143365 156.74917982 36.45328329 158.35772149 36.43388367 159.96624756 C36.38638608 164.19449756 36.3565753 168.42269421 36.33044434 172.65112305 C36.2953945 177.72738787 36.23838248 182.80344778 36.18505096 187.87954712 C36.10653978 195.58633882 36.05593268 203.29286235 36 211 C24.12 211 12.24 211 0 211 C0 141.37 0 71.74 0 0 Z " fill="#2D2C2A" transform="translate(186,118)"/>
<path d="M0 0 C1.0098999 0.01272949 2.0197998 0.02545898 3.06030273 0.03857422 C22.48175251 0.41781983 37.6786167 6.1819532 52.02734375 19.62109375 C63.11329061 31.16184869 69.52345357 45.50106829 72.3125 61.125 C72.50453003 62.17252441 72.50453003 62.17252441 72.70043945 63.24121094 C73.85903335 70.44261907 73.5625 76.75111341 73.5625 84.3125 C61.6825 84.3125 49.8025 84.3125 37.5625 84.3125 C37.315 81.651875 37.0675 78.99125 36.8125 76.25 C35.38418399 62.91824157 33.37167611 47.79263213 22.54296875 38.59765625 C13.52811892 32.65095799 3.37818626 31.9645773 -7.1328125 33.77734375 C-16.85035909 36.63843325 -24.18609063 43.79150728 -29.22265625 52.34375 C-38.68780372 70.1888688 -40.85881705 89.44431444 -40.8125 109.375 C-40.81295319 110.1381955 -40.81340637 110.90139099 -40.81387329 111.68771362 C-40.77600196 133.47910536 -38.03115816 159.91750911 -22.4375 176.625 C-13.78263073 183.92754594 -4.36164168 184.96678014 6.5625 184.3125 C15.53739431 182.68721954 21.90444449 178.98844424 27.18359375 171.50390625 C34.109975 160.49625786 35.60958166 148.00646918 37.5625 135.3125 C49.4425 135.3125 61.3225 135.3125 73.5625 135.3125 C73.5625 157.50728602 67.5716536 180.74615346 51.7890625 197.109375 C51.05429688 197.83640625 50.31953125 198.5634375 49.5625 199.3125 C48.97210937 199.93640625 48.38171875 200.5603125 47.7734375 201.203125 C34.56715069 214.11852443 16.19960409 217.8019668 -1.60791016 217.66674805 C-17.68887584 217.25475155 -32.5006569 213.11240182 -45.4375 203.3125 C-46.43523437 202.57966797 -46.43523437 202.57966797 -47.453125 201.83203125 C-64.01066551 188.63162986 -72.31271045 164.53993234 -75.4375 144.3125 C-75.623125 143.18199219 -75.80875 142.05148437 -76 140.88671875 C-81.40901075 103.80889696 -78.6174106 61.48502557 -56.25 30.1875 C-54.99092073 28.55337584 -53.72175578 26.92691304 -52.4375 25.3125 C-51.65375 24.260625 -50.87 23.20875 -50.0625 22.125 C-44.1907122 15.83379879 -37.51794097 11.11026719 -30 7 C-29.41621582 6.67467285 -28.83243164 6.3493457 -28.23095703 6.01416016 C-19.20327598 1.27247229 -10.10695338 -0.18875609 0 0 Z " fill="#2C2B29" transform="translate(1411.4375,114.6875)"/>
<path d="M0 0 C10.56 0 21.12 0 32 0 C33.0725 3.196875 34.145 6.39375 35.25 9.6875 C35.5790332 10.66549561 35.90806641 11.64349121 36.24707031 12.65112305 C38.22818525 18.57642597 40.10357167 24.52809981 41.92871094 30.50317383 C43.08491578 34.2771761 44.25856103 38.04555636 45.4375 41.8125 C45.64679138 42.48154861 45.85608276 43.15059723 46.07171631 43.83992004 C46.71423643 45.89335559 47.35706531 47.94669422 48 50 C51.79356534 62.11530475 55.56791877 74.23562064 59.23120117 86.39111328 C63.28025908 99.8022514 67.5028788 113.15768975 71.73632812 126.51147461 C75.34131245 137.88547449 78.87771326 149.27823475 82.33374023 160.69848633 C84.74221574 168.65515008 87.18134026 176.60113125 89.67578125 184.53125 C90.01848053 185.62194038 90.01848053 185.62194038 90.36810303 186.73466492 C91.50809907 190.36182221 92.65132237 193.987915 93.79931641 197.61254883 C94.21918322 198.9460924 94.63894725 200.27966833 95.05859375 201.61328125 C95.43298584 202.79704346 95.80737793 203.98080566 96.19311523 205.20043945 C97 208 97 208 97 210 C84.79 210 72.58 210 60 210 C54.33388158 194.13486842 54.33388158 194.13486842 52.5625 187.3125 C50.90835979 181.15006863 49.09613041 175.06810393 47.125 169 C43.59022174 158.05589343 40.70616294 146.9427355 37.7578125 135.82958984 C36.54656786 131.30693347 35.25392642 126.81018627 33.953125 122.3125 C31.14538456 112.55445125 28.473778 102.7571787 25.81469727 92.95776367 C23.47917685 84.35628684 21.11418391 75.7637471 18.6875 67.1875 C18.43299072 66.27959717 18.17848145 65.37169434 17.91625977 64.4362793 C17.67963623 63.60523682 17.4430127 62.77419434 17.19921875 61.91796875 C16.99127686 61.18344482 16.78333496 60.4489209 16.5690918 59.69213867 C16.13526155 57.98699026 16.13526155 57.98699026 15 57 C14.77860352 57.89605957 14.55720703 58.79211914 14.32910156 59.71533203 C13.48865403 63.11166707 12.64592506 66.50742041 11.80175781 69.90283203 C11.44019726 71.35899316 11.07948881 72.81536619 10.71972656 74.27197266 C8.61867259 82.77595928 6.3935401 91.2179014 3.95117188 99.63183594 C2.3673413 105.24028732 1.00511778 110.90116779 -0.375 116.5625 C-2.67471123 125.88440017 -5.10987754 135.14130676 -7.80688477 144.35571289 C-9.60932258 150.53966235 -11.23108794 156.75630697 -12.8125 163 C-16.85637041 178.85648201 -21.82647519 194.47942558 -27 210 C-39.21 210 -51.42 210 -64 210 C-62.69705474 204.13674632 -61.34063071 198.485357 -59.57421875 192.7734375 C-59.2300164 191.64731552 -59.2300164 191.64731552 -58.87886047 190.4984436 C-58.39556835 188.91984693 -57.91061921 187.34175668 -57.42407227 185.76416016 C-56.69600347 183.40258202 -55.97353805 181.03934756 -55.25195312 178.67578125 C-53.02590896 171.40920841 -50.74877988 164.16649178 -48.3203125 156.96484375 C-46.4504357 151.40817283 -44.74288261 145.83905645 -43.1875 140.1875 C-38.94560319 125.08482384 -34.4336483 110.0381299 -29.375 95.1875 C-27.52407756 89.73431544 -25.90871193 84.24373736 -24.35546875 78.69921875 C-21.06831783 67.08808773 -17.54542128 55.55310295 -13.98608398 44.02294922 C-12.93245225 40.60864271 -11.88300592 37.19306917 -10.83398438 33.77734375 C-10.14868433 31.5520073 -9.46314579 29.32674429 -8.77734375 27.1015625 C-8.47199203 26.1074234 -8.16664032 25.1132843 -7.85203552 24.08901978 C-5.35486726 16.01266015 -2.67538413 8.02615238 0 0 Z " fill="#2C2C2A" transform="translate(1049,118)"/>
<path d="M0 0 C10.56 0 21.12 0 32 0 C40.62038194 25.71747278 40.62038194 25.71747278 44 37 C48.77444063 52.8812215 53.72492392 68.70374704 58.73632812 84.51147461 C58.98747879 85.30415237 59.23862946 86.09683014 59.49739075 86.91352844 C59.96306694 88.38284669 60.42922774 89.85201151 60.89604187 91.32096863 C62.60670387 96.71699823 64.27203318 102.1264948 65.93403625 107.53768921 C67.7435448 113.41507574 69.5756706 119.28539887 71.40625 125.15625 C71.81696213 126.4741534 72.22764674 127.79206537 72.63830566 129.10998535 C73.92528002 133.24007038 75.21261092 137.37004423 76.5 141.5 C77.99516172 146.29649224 79.49016553 151.09303359 80.98478699 155.88969421 C81.57385654 157.77991536 82.16320513 159.67004954 82.75256348 161.56018066 C84.8791275 168.38454975 86.99326099 175.21257593 89.09222412 182.04548645 C90.03313996 185.10785974 90.9773819 188.16919713 91.921875 191.23046875 C92.53143809 193.2160881 93.1408146 195.20176474 93.75 197.1875 C94.22373047 198.71987305 94.22373047 198.71987305 94.70703125 200.28320312 C95.00480469 201.25580078 95.30257812 202.22839844 95.609375 203.23046875 C95.87717773 204.10082764 96.14498047 204.97118652 96.42089844 205.86791992 C97 208 97 208 97 210 C84.79 210 72.58 210 60 210 C57.29953556 201.89860669 54.8308137 193.92712577 52.6875 185.6875 C50.45382763 177.23628938 48.09573636 168.8470881 45.5 160.5 C42.66350649 151.3623934 40.09414725 142.172757 37.66015625 132.91992188 C35.43754188 124.49709366 33.05024716 116.12571013 30.64770508 107.75292969 C28.94064673 101.8016374 27.25348842 95.84480375 25.5703125 89.88671875 C25.28666336 88.8828009 25.00301422 87.87888306 24.71076965 86.84454346 C23.84860492 83.79226379 22.98679278 80.73988471 22.125 77.6875 C21.52607048 75.56704915 20.92711228 73.44660641 20.328125 71.32617188 C18.88508777 66.21754076 17.44239773 61.10881171 16 56 C14.49875355 59.55363989 13.39073038 63.05742656 12.44921875 66.796875 C12.165625 67.91126953 11.88203125 69.02566406 11.58984375 70.17382812 C11.29207031 71.35396484 10.99429688 72.53410156 10.6875 73.75 C8.74113836 81.37056883 6.79053032 88.97493705 4.5 96.5 C2.28882663 103.78017532 0.38691392 111.1297465 -1.5 118.5 C-3.55461692 126.52529856 -5.67915042 134.5033354 -8.0859375 142.4296875 C-10.42585216 150.23953254 -12.38659742 158.14913305 -14.4074707 166.04614258 C-16.23015395 173.13313755 -18.16463514 180.16576027 -20.28808594 187.16796875 C-21.97135462 192.76194707 -23.39933982 198.40641186 -24.74487305 204.09057617 C-25.89882918 208.89882918 -25.89882918 208.89882918 -27 210 C-29.73894085 210.08858646 -32.4525327 210.11523479 -35.19140625 210.09765625 C-36.01124496 210.0962413 -36.83108368 210.09482635 -37.67576599 210.09336853 C-40.30471382 210.08775289 -42.93357773 210.07519779 -45.5625 210.0625 C-47.34049357 210.05748701 -49.11848846 210.05292376 -50.89648438 210.04882812 C-55.26435545 210.03777839 -59.63216348 210.02050331 -64 210 C-62.48969685 202.64211284 -60.42472326 195.54236179 -58.1875 188.375 C-57.82930176 187.21782471 -57.47110352 186.06064941 -57.10205078 184.8684082 C-55.26180665 178.94966178 -53.37403433 173.05437274 -51.375 167.1875 C-49.17482646 160.69662258 -47.29961942 154.13809543 -45.44311523 147.54321289 C-41.42305064 133.32982213 -37.13811541 119.17053655 -32.375 105.1875 C-30.5614797 99.83018266 -28.96169732 94.44417675 -27.4375 89 C-24.44278859 78.32217756 -21.19763869 67.72403133 -17.9375 57.125 C-17.68201385 56.29210449 -17.42652771 55.45920898 -17.16329956 54.60107422 C-14.63839084 46.37495136 -12.08484952 38.16476297 -9.33203125 30.01171875 C-7.29047928 23.94781604 -5.45536991 17.85342078 -3.75 11.6875 C-3.24655788 9.87841381 -2.74143663 8.06979378 -2.234375 6.26171875 C-2.02006836 5.48787842 -1.80576172 4.71403809 -1.58496094 3.91674805 C-1 2 -1 2 0 0 Z " fill="#2D2C2A" transform="translate(511,118)"/>
<path d="M0 0 C12.54 0 25.08 0 38 0 C46.06490205 19.55462551 53.77003867 39.22111875 61.30809021 58.98353577 C62.85585982 63.03576985 64.42039774 67.08058161 66.00976562 71.11669922 C66.33535461 71.94535995 66.6609436 72.77402069 66.99639893 73.62779236 C67.62136228 75.21566775 68.24913068 76.80244275 68.88006592 78.38795471 C71 83.7784788 71 83.7784788 71 86 C71.66 86 72.32 86 73 86 C73.17196899 85.39477509 73.34393799 84.78955017 73.52111816 84.16598511 C75.32881318 77.95578644 77.46022751 71.95541167 79.84375 65.9453125 C80.20972794 65.01300812 80.57570587 64.08070374 80.95277405 63.12014771 C82.13139805 60.1202602 83.31559932 57.12261089 84.5 54.125 C85.31277924 52.05971219 86.12519603 49.99428172 86.93725586 47.92871094 C88.54452666 43.84197323 90.15389342 39.75607152 91.76513672 35.67089844 C93.71602138 30.72331971 95.65926052 25.77279566 97.59765625 20.8203125 C98.11325927 19.50373488 98.62888326 18.18716548 99.14453125 16.87060547 C100.06788845 14.5129286 100.99107431 12.15518463 101.9140625 9.79736328 C102.31496094 8.77626465 102.71585938 7.75516602 103.12890625 6.703125 C103.64046265 5.39843262 103.64046265 5.39843262 104.16235352 4.06738281 C105 2 105 2 106 0 C118.54 0 131.08 0 144 0 C140.62492489 10.12522533 140.62492489 10.12522533 139.10913086 13.59375 C138.59496864 14.77800064 138.59496864 14.77800064 138.07041931 15.98617554 C137.70557938 16.81573761 137.34073944 17.64529968 136.96484375 18.5 C136.57402115 19.39699615 136.18319855 20.29399231 135.78053284 21.21817017 C134.50323947 24.14708592 133.22042066 27.07354529 131.9375 30 C131.04005208 32.05503934 130.14292113 34.11021713 129.24609375 36.16552734 C124.87726119 46.17116748 120.4890628 56.16831327 116.09765625 66.1640625 C115.51164894 67.49809113 115.51164894 67.49809113 114.9138031 68.85906982 C112.75509281 73.77218965 110.59552497 78.684908 108.42350769 83.59216309 C107.73791517 85.1570339 107.06299067 86.72661662 106.39814758 88.30041504 C104.41947174 92.95311191 102.26443845 97.40472247 99.84472656 101.84570312 C88.9570551 122.80757623 89.36130437 143.06886099 89.71246338 166.25250244 C89.77586411 171.31538583 89.76932025 176.37819585 89.76953125 181.44140625 C89.7798154 191.29566793 89.87113869 201.14657543 90 211 C78.12 211 66.24 211 54 211 C54.19464844 205.40675781 54.38929688 199.81351563 54.58984375 194.05078125 C55.66216023 150.4412149 54.58664632 116.26450301 32.94189453 77.43652344 C28.83228501 69.99661891 25.58589518 62.21907536 22.33770752 54.37503052 C20.80066319 50.68287912 19.20575326 47.01615539 17.61328125 43.34765625 C17.0125099 41.9572038 16.41176106 40.56674162 15.81103516 39.17626953 C14.25701287 35.58709991 12.69117966 32.00320017 11.12115479 28.42100525 C9.88950073 25.61070541 8.66108542 22.79899444 7.43267822 19.98727417 C6.59004947 18.06291624 5.74215157 16.14094163 4.89404297 14.21899414 C4.14405029 12.50184204 4.14405029 12.50184204 3.37890625 10.75 C2.72257202 9.25726563 2.72257202 9.25726563 2.05297852 7.734375 C1 5 1 5 0 0 Z " fill="#2D2C2A" transform="translate(598,118)"/>
<path d="M0 0 C13.60131735 8.16079041 20.54532046 22.07698559 24.40600586 36.97729492 C31.32804107 66.7677946 30.71085534 105.69252659 15.25390625 132.7421875 C8.87339194 142.04919754 1.22364204 147.64531613 -9.79296875 150.32421875 C-18.7217887 151.5463198 -26.14909137 149.70220955 -33.4296875 144.40625 C-48.29165145 131.8546661 -54.12800551 112.17859699 -55.79296875 93.32421875 C-56.13533016 86.70337589 -56.16633191 80.07748152 -56.16796875 73.44921875 C-56.16987213 72.61650452 -56.17177551 71.78379028 -56.17373657 70.92584229 C-56.17015546 57.06763497 -55.72896021 43.20640347 -51.04296875 30.01171875 C-50.78128906 29.25463623 -50.51960938 28.49755371 -50.25 27.7175293 C-48.1196801 21.77824329 -45.52367611 16.43921489 -41.79296875 11.32421875 C-41.344375 10.68355469 -40.89578125 10.04289063 -40.43359375 9.3828125 C-30.97112115 -2.92371787 -13.96640967 -6.6010394 0 0 Z " fill="#FDFDFD" transform="translate(92.79296875,149.67578125)"/>
<path d="M0 0 C39.93 0 79.86 0 121 0 C121 11.22 121 22.44 121 34 C106.81 34 92.62 34 78 34 C78 92.08 78 150.16 78 210 C66.12 210 54.24 210 42 210 C42 151.92 42 93.84 42 34 C28.14 34 14.28 34 0 34 C0 22.78 0 11.56 0 0 Z " fill="#2C2B29" transform="translate(333,118)"/>
<path d="M0 0 C11.88 0 23.76 0 36 0 C36 69.3 36 138.6 36 210 C24.12 210 12.24 210 0 210 C0 140.7 0 71.4 0 0 Z " fill="#2C2B29" transform="translate(1523,118)"/>
<path d="M0 0 C4.30745021 4.02980609 7.65941391 8.44424521 11.0625 13.25 C11.6196167 14.02907715 12.1767334 14.8081543 12.75073242 15.61083984 C14.50632257 18.06980331 16.25422101 20.53406301 18 23 C18.58458984 23.82467773 19.16917969 24.64935547 19.77148438 25.49902344 C23.19094634 30.32571079 26.59963578 35.15984192 30 40 C36.20104308 36.59887388 42.01790812 32.70836429 47.875 28.75 C49.76682475 27.47187711 51.65997877 26.19571872 53.5546875 24.921875 C54.38468262 24.36081055 55.21467773 23.79974609 56.06982422 23.22167969 C58 22 58 22 59 22 C59.24782044 27.72884612 59.42891691 33.45455751 59.54931641 39.1875 C59.59950961 41.13564397 59.66768562 43.08341293 59.75439453 45.03027344 C60.45388384 61.14321541 60.45388384 61.14321541 57.01953125 65.52929688 C54.37372865 67.16514257 51.97654674 68.11744722 49 69 C47.57577651 69.60386576 46.15367141 70.2127681 44.734375 70.828125 C43.41002054 71.31251924 42.08189204 71.78673321 40.75 72.25 C40.08226562 72.49234375 39.41453125 72.7346875 38.7265625 72.984375 C36.82301639 73.67114458 34.91164998 74.33612155 33 75 C31.59609009 75.50104248 31.59609009 75.50104248 30.16381836 76.01220703 C19.39090987 79.37567549 7.88228015 79.40685546 -3.3125 79.375 C-4.03644958 79.37445618 -4.76039917 79.37391235 -5.50628662 79.37335205 C-16.48784565 79.3354752 -26.55929874 78.69299913 -37 75 C-37.64517578 74.77505859 -38.29035156 74.55011719 -38.95507812 74.31835938 C-47.48065359 71.29315518 -54.98685488 67.37080643 -63 63 C-63 49.47 -63 35.94 -63 22 C-55.07944949 26.32030028 -47.25166973 30.72256409 -39.48046875 35.29492188 C-38.68253906 35.76091797 -37.88460938 36.22691406 -37.0625 36.70703125 C-36.35222656 37.1244458 -35.64195313 37.54186035 -34.91015625 37.97192383 C-32.87889162 39.13545469 -32.87889162 39.13545469 -30 40 C-29.75121094 39.45085938 -29.50242187 38.90171875 -29.24609375 38.3359375 C-27.7557391 35.54210653 -25.97515695 33.14984552 -24.0625 30.625 C-23.47577515 29.84987061 -23.47577515 29.84987061 -22.87719727 29.05908203 C-15.41746467 19.24449173 -7.7249009 9.60632375 0 0 Z " fill="#FDCC05" transform="translate(1239,1)"/>
<path d="M0 0 C1.42748441 -0.00512655 1.42748441 -0.00512655 2.88380688 -0.01035666 C6.07471444 -0.01694868 9.26478204 0.00506289 12.45561218 0.0269165 C14.74203471 0.02804469 17.02845869 0.02741168 19.31488037 0.02514648 C25.52525662 0.0239973 31.7353248 0.04754001 37.94562936 0.07544231 C44.43455211 0.10042177 50.92348166 0.10279525 57.41244507 0.10754395 C68.30481976 0.11856986 79.19708051 0.14356657 90.08940125 0.17926025 C101.30781997 0.21598429 112.52620797 0.24429411 123.74467468 0.2612915 C124.43634404 0.2623424 125.1280134 0.26339329 125.84064243 0.26447603 C129.3105936 0.26969623 132.78054498 0.27475105 136.25049651 0.27972364 C165.03077812 0.32118096 193.81093609 0.39272719 222.59111023 0.48101807 C222.59111023 6.75101807 222.59111023 13.02101807 222.59111023 19.48101807 C137.12111023 19.48101807 51.65111023 19.48101807 -36.40888977 19.48101807 C-35.07335026 16.80993904 -33.73872749 16.57618145 -31.03388977 15.35601807 C-24.23653057 12.06949002 -17.66687422 7.77339216 -12.33800983 2.38827896 C-8.20279465 -0.3043161 -4.83523145 -0.06343292 0 0 Z " fill="#343332" transform="translate(1336.4088897705078,77.51898193359375)"/>
<path d="M0 0 C39.5887987 0 39.5887987 0 50.453125 9.25390625 C58.03499064 17.81222428 58.51606415 27.04719741 58.13623047 37.93261719 C57.65973931 45.16366942 55.39807204 51.06133835 50 56 C35.42296123 65.78160171 16.50848308 63 0 63 C0 42.21 0 21.42 0 0 Z " fill="#F9F9F9" transform="translate(878,234)"/>
<path d="M0 0 C4.20872148 -0.08105241 8.4158763 -0.14053316 12.625 -0.1875 C14.40970703 -0.22520508 14.40970703 -0.22520508 16.23046875 -0.26367188 C23.11965851 -0.32140252 28.31611223 -0.36012566 33.64453125 4.5 C37.50992229 9.46424803 38.42589854 12.71799659 38 19 C36.44651488 22.77274959 34.46301771 25.77806927 32 29 C32.51949219 29.38929688 33.03898437 29.77859375 33.57421875 30.1796875 C39.96387161 35.30558277 44.20642761 40.68376727 45.44140625 48.95703125 C45.77217421 57.26891001 43.60693371 63.8102851 39.25 70.8125 C27.79538872 81.94892763 16.52700622 80 0 80 C0 64.16 0 48.32 0 32 C-2.97 32 -5.94 32 -9 32 C-7.125 27.25 -7.125 27.25 -6 25 C-4.02 25 -2.04 25 0 25 C0 16.75 0 8.5 0 0 Z " fill="#4B4B4B" transform="translate(10,360)"/>
<path d="M0 0 C2.38332359 1.19686556 4.62850196 2.47017626 6.87109375 3.91015625 C7.53109375 4.24015625 8.19109375 4.57015625 8.87109375 4.91015625 C12.33609375 2.43515625 12.33609375 2.43515625 15.87109375 -0.08984375 C15.94092055 7.31691682 15.99406957 14.72360521 16.02653027 22.13062954 C16.04211791 25.57084809 16.06322783 29.01083973 16.09741211 32.45092773 C16.13655382 36.41517322 16.15086004 40.37933012 16.1640625 44.34375 C16.17954636 45.56597763 16.19503021 46.78820526 16.21098328 48.04747009 C16.21306158 58.6917364 14.586662 66.16846527 7.09765625 73.95703125 C0.93541335 79.36250748 -5.18534263 80.5445953 -13.26953125 80.2265625 C-20.56951707 79.41877718 -26.20777734 76.43104774 -31.12890625 70.91015625 C-31.12890625 70.25015625 -31.12890625 69.59015625 -31.12890625 68.91015625 C-27.66736779 65.91015625 -27.66736779 65.91015625 -25.12890625 65.91015625 C-24.36578125 66.69390625 -23.60265625 67.47765625 -22.81640625 68.28515625 C-18.99845097 72.01432187 -16.05140966 73.00679415 -10.81640625 73.28515625 C-4.61795886 73.13019507 -0.05083326 70.88266029 4.24609375 66.47265625 C7.60465105 61.17646973 8.14022092 56.80066792 7.99609375 50.59765625 C7.98707031 49.85708984 7.97804688 49.11652344 7.96875 48.35351562 C7.94533588 46.53892158 7.9094699 44.72449554 7.87109375 42.91015625 C7.32324219 43.34328125 6.77539062 43.77640625 6.2109375 44.22265625 C-1.34908673 49.5331123 -8.06424914 50.06605212 -17.12890625 48.91015625 C-23.84027293 47.20601612 -28.23438606 42.45122042 -32.12890625 36.91015625 C-36.00306859 30.35666669 -35.8783761 24.34523778 -35.12890625 16.91015625 C-33.18125421 9.66442694 -27.66266852 4.03539074 -21.35546875 0.2421875 C-14.74115444 -2.48841926 -6.7339074 -2.34551831 0 0 Z " fill="#494949" transform="translate(906.12890625,392.08984375)"/>
<path d="M0 0 C3.63 0 7.26 0 11 0 C11.33 12.21 11.66 24.42 12 37 C15.3 35.02 18.6 33.04 22 31 C29.95721134 29.44834379 37.86358491 30.25570849 44.91015625 34.37109375 C48.36970015 37.06759806 50.78625529 40.23812976 53 44 C53.37253906 44.58136719 53.74507812 45.16273438 54.12890625 45.76171875 C56.41876212 51.64551881 56.08871016 60.65284923 54.16015625 66.58203125 C50.73745963 72.42481639 45.21575319 77.31903811 39.25 80.4375 C31.00066938 81.86526876 23.56559308 81.71401842 16 78 C15.47277344 77.46890625 14.94554687 76.9378125 14.40234375 76.390625 C13.93957031 75.93171875 13.47679687 75.4728125 13 75 C8.89297864 75.13690071 7.41846259 77.26522992 4 80 C4 55.58 4 31.16 4 6 C1.69 6 -0.62 6 -3 6 C-1.125 1.125 -1.125 1.125 0 0 Z " fill="#4B4B4B" transform="translate(149,360)"/>
<path d="M0 0 C4.24875 -0.0825 8.4975 -0.165 12.875 -0.25 C14.1935498 -0.28641602 15.51209961 -0.32283203 16.87060547 -0.36035156 C26.13487429 -0.44673819 34.3827225 0.91191351 41.4375 7.375 C42.36369141 8.19097656 42.36369141 8.19097656 43.30859375 9.0234375 C47.98880965 14.49269673 48.4971561 19.47658517 48.4375 26.375 C48.4674707 27.59316406 48.4674707 27.59316406 48.49804688 28.8359375 C48.49213516 36.21375989 46.41679471 41.47079623 41.3125 46.8125 C32.63795545 52.54097281 24.09812529 52.3812807 13.9375 52.1875 C9.338125 52.125625 4.73875 52.06375 0 52 C0 34.84 0 17.68 0 0 Z " fill="#FCFCFC" transform="translate(879,150)"/>
<path d="M0 0 C5.30962375 3.82831568 8.61051814 8.54937132 11.15625 14.5546875 C12.18369021 22.33754706 12.24357133 29.94544721 7.76953125 36.625 C2.19271936 43.29556919 -3.51657217 47.50373254 -12.1484375 48.9375 C-19.66328214 49.48970903 -25.69947227 46.72180227 -31.84375 42.5546875 C-37.71763413 36.94622446 -40.86545216 29.73523012 -41.34375 21.6796875 C-41.11474727 14.60241255 -37.90679451 8.98802205 -33.40625 3.6796875 C-23.48771146 -4.54544202 -11.62751259 -6.68204457 0 0 Z " fill="#E02128" transform="translate(429.84375,388.4453125)"/>
<path d="M0 0 C5.82614684 3.4356846 10.5610594 8.36737308 12.9609375 14.80078125 C14.77776751 22.94673221 14.16675844 30.53070929 9.98828125 37.78125 C6.19206189 43.05962049 0.91943676 47.56524833 -5.5625 48.9375 C-14.12857047 49.90447945 -21.27442854 49.86760461 -28.47265625 44.77734375 C-34.5929887 39.38916322 -37.93641991 33.80700087 -38.8125 25.59375 C-39.20424453 17.66092324 -36.74213686 12.17581762 -32.375 5.6875 C-23.44882507 -3.04031549 -11.66892772 -5.30566049 0 0 Z " fill="#E02127" transform="translate(1170.5625,387.0625)"/>
<path d="M0 0 C3.20981504 0.60233566 5.91052332 1.87339132 8.82128906 3.32348633 C14.9843695 6.38325742 21.14310162 8.8806671 27.75 10.8125 C28.40959717 11.00682617 29.06919434 11.20115234 29.7487793 11.40136719 C57.48488206 19.16324717 89.60086764 16.78149671 115.09619141 2.85498047 C115.72058105 2.48904785 116.3449707 2.12311523 116.98828125 1.74609375 C120 0 120 0 122 0 C122.8416013 3.91308638 123.05770808 7.11317954 122 11 C118.21055748 14.68313803 113.75210574 16.82604818 109 19 C107.81019531 19.55558594 106.62039063 20.11117187 105.39453125 20.68359375 C101.63802479 22.29812654 97.87075137 23.69271221 94 25 C92.82179688 25.41507813 91.64359375 25.83015625 90.4296875 26.2578125 C65.96720302 33.44084182 36.8148259 30.88845567 14.38647461 19.00927734 C13.15069149 18.32791632 11.91846798 17.64004698 10.69042969 16.94482422 C9.15393445 16.08603789 7.58219024 15.29109512 6.0078125 14.50390625 C3.57007689 13.16353137 1.78739436 12.13131035 0 10 C-0.71381916 6.54032173 -0.55601147 3.47335561 0 0 Z " fill="#FCCC0E" transform="translate(1176,71)"/>
<path d="M0 0 C3.56807141 2.37871427 5.21609532 4.17734712 7 8 C-6.17378806 20.44297938 -6.17378806 20.44297938 -12.9375 25.8125 C-17.51571499 29.46965399 -21.34787649 33.42549718 -25 38 C-18.76342399 39.85008475 -11.6938445 39.93060083 -5.5625 37.8125 C-2.70803556 35.79348857 -0.36338313 33.57191694 2 31 C3.98 31.66 5.96 32.32 8 33 C5.33280734 39.54674563 0.01116382 42.88310024 -6 46 C-12.06459011 48.02153004 -19.43509105 48.13419352 -25.3125 45.4375 C-32.51903699 41.15253206 -37.85528262 35.19815045 -40 27 C-40.95634931 19.5266724 -40.51105321 13.17934213 -36 7 C-26.38391265 -5.13221384 -13.48878604 -6.99596008 0 0 Z " fill="#4A4A4A" transform="translate(1475,396)"/>
<path d="M0 0 C3.17355187 2.09021087 5.48440356 4.37863945 7.9453125 7.28125 C7.9453125 7.94125 7.9453125 8.60125 7.9453125 9.28125 C6.45422016 10.61106093 4.89824536 11.8682373 3.3203125 13.09375 C-2.06016021 17.38838346 -7.10449545 21.94676452 -12.10595703 26.67504883 C-14.82542818 29.2390654 -17.55379608 31.71041852 -20.47265625 34.046875 C-21.32472656 34.78421875 -22.17679688 35.5215625 -23.0546875 36.28125 C-23.0546875 36.94125 -23.0546875 37.60125 -23.0546875 38.28125 C-18.68671203 40.75610744 -14.97656317 40.814245 -10.0546875 40.28125 C-5.82997977 38.94342589 -3.50466206 37.73122456 -0.3671875 34.59375 C0.3959375 33.830625 1.1590625 33.0675 1.9453125 32.28125 C5.9453125 32.28125 5.9453125 32.28125 7.6953125 33.78125 C8.1078125 34.27625 8.5203125 34.77125 8.9453125 35.28125 C4.87512772 40.8198936 0.59663121 45.12712974 -6.0546875 47.28125 C-14.57271918 48.51412301 -21.81157986 48.17156221 -28.96484375 43.125 C-34.70786503 38.05825973 -38.44856204 32.52049886 -39.33984375 24.81640625 C-39.73575545 17.57832823 -38.24279195 12.21523896 -34.0546875 6.28125 C-25.22940675 -3.50448225 -11.95217658 -6.17455617 0 0 Z " fill="#484848" transform="translate(247.0546875,393.71875)"/>
<path d="M0 0 C4.68776162 2.23527049 8.10484275 4.57073704 10.92578125 9.05859375 C9.41526102 12.73529959 7.27691975 14.77733837 4.30078125 17.37109375 C2.94919922 18.55638672 2.94919922 18.55638672 1.5703125 19.765625 C0.69761719 20.52230469 -0.17507813 21.27898437 -1.07421875 22.05859375 C-1.75097656 22.66058594 -2.42773438 23.26257813 -3.125 23.8828125 C-7.90641324 28.1296578 -12.8561134 32.14838851 -17.8515625 36.140625 C-20.13755023 37.86442702 -20.13755023 37.86442702 -21.07421875 40.05859375 C-15.78718837 42.2847118 -10.72769891 42.92098903 -5.07421875 42.05859375 C-0.47015628 40.10982532 3.34158131 37.41943114 5.92578125 33.05859375 C7.90578125 33.71859375 9.88578125 34.37859375 11.92578125 35.05859375 C11.03612448 40.18256627 7.85411979 42.88835563 3.92578125 46.05859375 C-2.36701065 49.99675236 -9.9035885 49.83233804 -17.07421875 49.05859375 C-24.10024905 47.2932595 -29.06419474 41.87595253 -33.07421875 36.05859375 C-36.06585967 28.88256618 -36.64369842 20.52236102 -34.046875 13.13671875 C-27.09858901 0.43348121 -13.67319273 -4.18708951 0 0 Z " fill="#484848" transform="translate(1008.07421875,391.94140625)"/>
<path d="M0 0 C4.16722615 1.98744632 7.50951033 4.66032541 10.40625 8.28125 C10.40625 12.28125 10.40625 12.28125 8.38671875 14.54296875 C7.46503906 15.34347656 6.54335938 16.14398438 5.59375 16.96875 C5.09963623 17.40227783 4.60552246 17.83580566 4.09643555 18.2824707 C-0.18668465 22.01214259 -4.58927927 25.59963738 -9.00390625 29.171875 C-15.61509572 34.02078858 -15.61509572 34.02078858 -20.59375 40.28125 C-15.30671962 42.50736805 -10.24723016 43.14364528 -4.59375 42.28125 C0.01031247 40.33248157 3.82205006 37.64208739 6.40625 33.28125 C8.38625 33.94125 10.36625 34.60125 12.40625 35.28125 C11.62369341 41.00289328 6.73592822 43.97203466 2.40625 47.28125 C-3.56061729 50.46357922 -11.32041589 50.02284234 -17.8671875 48.88671875 C-24.91028569 46.72924796 -29.67265199 41.22293133 -33.59375 35.21875 C-35.94100477 28.44124615 -35.88550925 20.01952298 -33.5625 13.296875 C-26.73771436 0.78476799 -13.51372694 -3.74476771 0 0 Z " fill="#474747" transform="translate(808.59375,391.71875)"/>
<path d="M0 0 C2.31 0 4.62 0 7 0 C7 8.25 7 16.5 7 25 C16.24 25 25.48 25 35 25 C35 16.75 35 8.5 35 0 C37.31 0 39.62 0 42 0 C42 26.4 42 52.8 42 80 C39.69 80 37.38 80 35 80 C35 64.16 35 48.32 35 32 C25.76 32 16.52 32 7 32 C7 47.84 7 63.68 7 80 C4.69 80 2.38 80 0 80 C0 64.16 0 48.32 0 32 C-2.97 32 -5.94 32 -9 32 C-7.125 27.25 -7.125 27.25 -6 25 C-4.02 25 -2.04 25 0 25 C0 16.75 0 8.5 0 0 Z " fill="#4E4E4E" transform="translate(518,360)"/>
<path d="M0 0 C12.49196599 0.18422271 21.14862622 3.04532886 30.27099609 11.98999023 C38.92020079 21.57932587 42.13518051 30.60806988 41.83740234 43.52905273 C40.58468449 55.29266995 34.74652784 65.29195342 25.61474609 72.69311523 C14.79666019 80.26998474 4.66826404 80.38061523 -8.57275391 80.38061523 C-8.57275391 55.96061523 -8.57275391 31.54061523 -8.57275391 6.38061523 C-11.54275391 6.38061523 -14.51275391 6.38061523 -17.57275391 6.38061523 C-14.29038972 -2.15353165 -8.46338716 0.01430256 0 0 Z M-2.57275391 6.38061523 C-2.57275391 28.82061523 -2.57275391 51.26061523 -2.57275391 74.38061523 C8.52990805 74.38061523 17.64758279 72.17555148 25.77880859 64.26733398 C33.059603 55.93410248 34.87085795 47.7861794 34.67333984 36.81811523 C34.02105382 27.7068184 30.23205692 20.94307815 23.64599609 14.68920898 C15.51462345 8.04081209 7.84358937 6.38061523 -2.57275391 6.38061523 Z " fill="#464646" transform="translate(728.57275390625,359.619384765625)"/>
<path d="M0 0 C2.23887292 1.69005829 4.34178625 3.41843151 6.40625 5.31640625 C7.14875 5.98671875 7.89125 6.65703125 8.65625 7.34765625 C10.40625 9.31640625 10.40625 9.31640625 10.40625 12.31640625 C8.75625 12.97640625 7.10625 13.63640625 5.40625 14.31640625 C4.65794922 13.53716797 4.65794922 13.53716797 3.89453125 12.7421875 C-3.82150593 5.24779592 -12.31847629 1.1846223 -23.15625 0.69140625 C-32.65083394 1.11568114 -41.0338892 4.80800449 -47.91015625 11.35546875 C-50.76907307 14.68534403 -52.77954772 18.3364121 -54.59375 22.31640625 C-54.95855469 23.07566406 -55.32335938 23.83492188 -55.69921875 24.6171875 C-58.73428762 33.77540842 -57.19521502 44.2664894 -53.06640625 52.765625 C-48.11689325 61.33865415 -41.31640034 66.02734611 -32.15625 69.69140625 C-21.0055768 71.64766471 -11.5079934 70.20512523 -2.09375 63.81640625 C0.80698599 61.72347015 2.39872038 60.32770068 4.40625 57.31640625 C6.05625 57.64640625 7.70625 57.97640625 9.40625 58.31640625 C9.73625 59.63640625 10.06625 60.95640625 10.40625 62.31640625 C-0.68946188 72.95737584 -9.92877752 77.7321287 -25.44921875 77.75732422 C-36.40151131 77.43354834 -45.48388544 72.20857968 -53.23828125 64.73046875 C-61.92122984 55.36607356 -65.13767872 44.13661539 -64.90625 31.625 C-63.77267832 19.62330984 -57.04433561 9.74659811 -48.03515625 2.109375 C-34.32105542 -7.96226065 -14.54338159 -9.44005642 0 0 Z " fill="#484848" transform="translate(1293.59375,365.68359375)"/>
<path d="M0 0 C4.61126547 3.56720536 7.40638677 7.70355394 8.37109375 13.484375 C8.59968557 19.61825554 8.1085631 23.73717501 3.86328125 28.44140625 C2.65671875 29.80265625 2.65671875 29.80265625 1.42578125 31.19140625 C-3.3082755 35.34813901 -7.48071202 35.90035292 -13.640625 35.75390625 C-18.90916079 35.09430866 -22.49197686 32.40115423 -25.94921875 28.44140625 C-30.11739447 22.72505098 -30.99589258 18.47793115 -30.13671875 11.44140625 C-28.30500364 5.83657737 -24.00078856 1.62011854 -19.13671875 -1.55859375 C-12.7033957 -3.68159036 -5.89888378 -3.39274478 0 0 Z " fill="#FBFBFB" transform="translate(907.13671875,399.55859375)"/>
<path d="M0 0 C6.01185434 3.41850541 9.06450192 7.22003229 11.1875 13.8125 C11.99792436 19.44106373 11.0460521 23.83308667 8.1875 28.8125 C4.47031587 32.71823695 0.33330536 36.35933541 -5.14453125 37.1484375 C-11.32741592 37.24580576 -14.82039057 36.53211095 -19.8125 32.8125 C-24.38981123 28.36909947 -26.6123137 24.2948101 -27.125 17.9375 C-26.93906658 12.7215783 -25.62443396 8.6688986 -21.90234375 4.85546875 C-14.86222995 -1.41802649 -9.27637639 -2.88936314 0 0 Z " fill="#FBFBFB" transform="translate(186.8125,398.1875)"/>
<path d="M0 0 C19.23320637 0 19.23320637 0 23.41796875 3.41015625 C23.94003906 3.93480469 24.46210937 4.45945312 25 5 C25.59425781 5.53496094 26.18851563 6.06992187 26.80078125 6.62109375 C31.60928609 11.76121962 31.61775575 16.81702231 31.50390625 23.6328125 C30.64624668 29.36383999 28.40621226 33.11562116 24 36.8125 C23.319375 37.39644531 22.63875 37.98039062 21.9375 38.58203125 C15.33919482 43.41103282 8.83217187 41 0 41 C0 27.47 0 13.94 0 0 Z " fill="#FCFCFC" transform="translate(17,392)"/>
<path d="M0 0 C1.67807013 0.87368548 3.33181212 1.79729887 4.9453125 2.78515625 C6.9616033 4.12320793 6.9616033 4.12320793 9.8984375 3.87890625 C11.25212346 2.56624107 12.58643346 1.233233 13.8984375 -0.12109375 C14.5584375 -0.12109375 15.2184375 -0.12109375 15.8984375 -0.12109375 C15.8984375 15.71890625 15.8984375 31.55890625 15.8984375 47.87890625 C12.9284375 45.40390625 12.9284375 45.40390625 9.8984375 42.87890625 C6.67422323 42.91957202 5.02420483 44.47397675 2.5859375 46.44140625 C-3.42438476 50.32048853 -10.23467072 49.66283242 -17.1015625 48.87890625 C-24.14059414 47.18329166 -29.09659651 41.68892733 -33.1015625 35.87890625 C-35.97755115 29.02150008 -36.70679165 20.54527005 -34.26171875 13.4375 C-26.99987055 0.94320898 -13.90378321 -5.02567479 0 0 Z M-26.90234375 14.1953125 C-29.97580328 18.51016937 -29.76153061 23.82415049 -29.1015625 28.87890625 C-26.83001438 34.53819424 -22.98466858 38.37580841 -18.1015625 41.87890625 C-13.11246832 43.54193764 -7.80405959 43.96364557 -2.84375 41.97265625 C2.46242762 38.82526572 6.90771083 34.85108627 8.8984375 28.87890625 C9.65166161 22.21825306 9.39022341 17.05894599 5.39453125 11.53515625 C1.43978042 7.15705089 -2.73258046 5.2180282 -8.46875 4.640625 C-17.26025266 4.38044034 -21.36081396 7.66474327 -26.90234375 14.1953125 Z " fill="#4A4A4A" transform="translate(94.1015625,392.12109375)"/>
<path d="M0 0 C2.14576918 1.44413672 4.11240953 2.91612697 6.0234375 4.65625 C9.09119261 3.23193513 11.23383849 1.74844926 14.0234375 -0.34375 C14.0234375 15.49625 14.0234375 31.33625 14.0234375 47.65625 C11.0534375 45.18125 11.0534375 45.18125 8.0234375 42.65625 C6.03756142 43.63594886 4.07783488 44.62506824 2.15625 45.7265625 C-4.66252732 49.30841051 -11.40314298 49.77378069 -18.9765625 48.65625 C-27.34132761 45.5798129 -32.51468581 39.69190687 -36.3515625 31.84375 C-37.92911274 23.79824375 -37.66894094 17.1960904 -33.59765625 9.953125 C-26.11791361 -0.64467902 -12.33395662 -5.5680854 0 0 Z M-26.8515625 11.78125 C-31.00679473 17.40303478 -30.56399062 22.81923938 -29.9765625 29.65625 C-28.18339817 35.32810675 -24.14527234 38.81227389 -19.1171875 41.73828125 C-14.57780094 43.684916 -9.3479029 43.40488135 -4.6875 41.93359375 C1.01374801 39.29649963 4.59953429 35.48176527 7.0234375 29.65625 C7.88205495 23.41476164 8.2113893 17.40438975 4.4609375 12.09375 C0.61259728 7.86057576 -2.86802701 5.09704676 -8.62109375 4.28125 C-16.56776678 3.93337922 -21.5672583 5.65626104 -26.8515625 11.78125 Z " fill="#474747" transform="translate(601.9765625,392.34375)"/>
<path d="M0 0 C6.77785877 4.01896518 10.59820676 8.70543771 12.99609375 16.18359375 C14.31086757 24.83565375 13.12757007 32.03062676 7.99609375 39.18359375 C3.10975521 44.78153498 -2.53563692 47.63421637 -9.86328125 48.53515625 C-17.12665718 48.88542057 -22.27518015 47.73578685 -28.00390625 43.18359375 C-34.20440848 37.40612773 -38.03102541 31.5042004 -38.50390625 22.87109375 C-38.27191224 15.82427578 -35.84435807 10.33899106 -31.13671875 5.109375 C-22.07281943 -3.30206464 -11.23326636 -5.78683419 0 0 Z M-27.81640625 11.30859375 C-31.91978291 16.70160308 -31.46438888 21.56306994 -31.00390625 28.18359375 C-29.26289323 33.7138704 -25.55125248 36.81965329 -21.00390625 40.18359375 C-16.54720928 42.41194223 -10.83977533 41.67566464 -6.00390625 41.18359375 C-1.01660348 39.44311094 2.99745625 36.22770116 5.37109375 31.40625 C7.12479129 25.16966314 7.09692143 18.5546072 4.37109375 12.68359375 C-1.59053696 6.40080982 -1.59053696 6.40080982 -9.7109375 3.9453125 C-18.00037438 3.74720017 -22.29467173 4.94456074 -27.81640625 11.30859375 Z " fill="#4B4B4B" transform="translate(1346.00390625,394.81640625)"/>
<path d="M0 0 C2.31 0 4.62 0 7 0 C7.01458252 1.00377686 7.02916504 2.00755371 7.04418945 3.04174805 C7.10232052 6.7787575 7.17955165 10.51517369 7.26245117 14.25170898 C7.2956311 15.86651963 7.32368458 17.48144431 7.34643555 19.09643555 C7.38011025 21.42285592 7.43242963 23.74823783 7.48828125 26.07421875 C7.49467117 26.79212082 7.5010611 27.51002289 7.50764465 28.24967957 C7.6653694 33.67070048 9.05065898 36.82573502 12.625 40.8125 C16.34890521 42.67445261 19.92048484 42.53907879 24 42 C26.83127469 40.79520226 28.36807697 39.92033057 30.10302734 37.39355469 C31.38989036 33.9595849 31.35790152 30.57494482 31.4140625 26.953125 C31.43342865 26.18192322 31.4527948 25.41072144 31.4727478 24.6161499 C31.53237077 22.16087795 31.57885914 19.70555867 31.625 17.25 C31.66319575 15.58201118 31.70224841 13.91404174 31.7421875 12.24609375 C31.83805791 8.16422057 31.92215235 4.08225507 32 0 C34.31 0 36.62 0 39 0 C39 15.84 39 31.68 39 48 C37.68 47.34 36.36 46.68 35 46 C31.79081252 46 31.07619079 46.41348028 28.4375 48 C23.62324937 50.46454298 19.32229539 50.9799782 14 50 C8.06764119 47.51289425 3.83074938 43.60857032 0.91064453 37.8527832 C-0.26715632 34.16307733 -0.2487384 30.68428131 -0.1953125 26.85546875 C-0.1924826 26.08568192 -0.18965271 25.31589508 -0.18673706 24.52278137 C-0.17559157 22.07752575 -0.15049781 19.63264388 -0.125 17.1875 C-0.1149629 15.52409385 -0.10583833 13.86068193 -0.09765625 12.19726562 C-0.07567073 8.13136763 -0.04118014 4.06574706 0 0 Z " fill="#4E4E4E" transform="translate(1488,393)"/>
<path d="M0 0 C-0.6875 1.9375 -0.6875 1.9375 -2 4 C-4.94460725 5.00957963 -7.38018205 4.99321103 -10.5 4.9375 C-13.94593523 4.99903456 -16.00857077 5.32831896 -19 7 C-19.9300889 9.7902667 -20.18698769 11.76529542 -20.31640625 14.66796875 C-20.35830078 15.56064453 -20.40019531 16.45332031 -20.44335938 17.37304688 C-20.48267578 18.30181641 -20.52199219 19.23058594 -20.5625 20.1875 C-20.60568359 21.12787109 -20.64886719 22.06824219 -20.69335938 23.03710938 C-20.79938665 25.35792854 -20.90145029 27.67885325 -21 30 C-18.36 30 -15.72 30 -13 30 C-13 31.98 -13 33.96 -13 36 C-15.64 36 -18.28 36 -21 36 C-21 49.86 -21 63.72 -21 78 C-23.31 78 -25.62 78 -28 78 C-28 64.14 -28 50.28 -28 36 C-30.97 36 -33.94 36 -37 36 C-37 33.69 -37 31.38 -37 29 C-34.03 29 -31.06 29 -28 29 C-28.05800781 27.72125 -28.11601563 26.4425 -28.17578125 25.125 C-28.22271247 23.41670344 -28.268209 21.70836705 -28.3125 20 C-28.3753418 18.74123047 -28.3753418 18.74123047 -28.43945312 17.45703125 C-28.56278229 11.09324659 -27.14243912 6.88421626 -23 2 C-15.22011068 -4.06831367 -8.62517572 -4.22457586 0 0 Z " fill="#4E4E4E" transform="translate(1413,364)"/>
<path d="M0 0 C1.010625 0.495 2.02125 0.99 3.0625 1.5 C2.375 3.4375 2.375 3.4375 1.0625 5.5 C-1.93226771 6.5267775 -4.26504013 6.48245321 -7.4375 6.3125 C-11.62443946 6.53680033 -13.0177661 7.5802661 -15.9375 10.5 C-17.05573815 12.73647631 -17.13146061 14.14891529 -17.25390625 16.6328125 C-17.29580078 17.43847656 -17.33769531 18.24414062 -17.38085938 19.07421875 C-17.43983398 20.33685547 -17.43983398 20.33685547 -17.5 21.625 C-17.54318359 22.47449219 -17.58636719 23.32398438 -17.63085938 24.19921875 C-17.73704236 26.29928223 -17.83778497 28.39961948 -17.9375 30.5 C-14.9675 30.5 -11.9975 30.5 -8.9375 30.5 C-8.9375 32.81 -8.9375 35.12 -8.9375 37.5 C-11.9075 37.5 -14.8775 37.5 -17.9375 37.5 C-17.9375 51.36 -17.9375 65.22 -17.9375 79.5 C-20.2475 79.5 -22.5575 79.5 -24.9375 79.5 C-24.9375 65.64 -24.9375 51.78 -24.9375 37.5 C-27.5775 37.5 -30.2175 37.5 -32.9375 37.5 C-32.9375 35.52 -32.9375 33.54 -32.9375 31.5 C-29.9675 31.5 -26.9975 31.5 -23.9375 31.5 C-23.98390625 30.05367188 -24.0303125 28.60734375 -24.078125 27.1171875 C-24.11565523 25.20314572 -24.15205405 23.28908152 -24.1875 21.375 C-24.22101563 20.42367188 -24.25453125 19.47234375 -24.2890625 18.4921875 C-24.37075584 12.61026719 -23.96107707 9.12564518 -19.9375 4.5 C-13.72278131 -1.09324682 -8.14110451 -3.47727339 0 0 Z " fill="#4B4B4B" transform="translate(1438.9375,362.5)"/>
<path d="M0 0 C5.38695823 1.66505982 8.9299897 5.34998439 12 10 C13.3801545 13.9076735 13.12597841 17.95908947 13.09765625 22.046875 C13.0962413 22.81807678 13.09482635 23.58927856 13.09336853 24.3838501 C13.08778534 26.83927338 13.07523595 29.29460442 13.0625 31.75 C13.05748283 33.41796743 13.0529203 35.08593629 13.04882812 36.75390625 C13.03782141 40.83597287 13.02056836 44.91797081 13 49 C11.02 49 9.04 49 7 49 C6.98598145 47.50218994 6.98598145 47.50218994 6.97167969 45.97412109 C6.93164255 42.25004358 6.86584734 38.52678033 6.79248047 34.80322266 C6.76434995 33.19525659 6.74309611 31.58715428 6.72900391 29.97900391 C6.70746309 27.65977633 6.66076128 25.34217305 6.609375 23.0234375 C6.60814636 22.31069672 6.60691772 21.59795593 6.60565186 20.86361694 C6.45925055 15.81307106 5.17501969 12.89554456 2 9 C-1.90649118 6.67722146 -5.52324921 6.52876307 -10 7 C-13.995426 9.11079109 -16.44565167 10.74478347 -18 15 C-18.2354457 17.64002059 -18.37184421 20.1854146 -18.4140625 22.828125 C-18.43342865 23.57713074 -18.4527948 24.32613647 -18.4727478 25.09783936 C-18.53235716 27.48177836 -18.57885354 29.86576614 -18.625 32.25 C-18.66319701 33.86981231 -18.70224975 35.48960468 -18.7421875 37.109375 C-18.83804313 41.07275406 -18.92214246 45.03622819 -19 49 C-20.98 49 -22.96 49 -25 49 C-25 33.16 -25 17.32 -25 1 C-23.68 1.99 -22.36 2.98 -21 4 C-4.73891023 -0.3627314 -4.73891023 -0.3627314 0 0 Z " fill="#444444" transform="translate(954,391)"/>
<path d="M0 0 C3.85109982 1.3550166 5.50182233 2.0262891 7.375 5.6875 C7.58125 6.450625 7.7875 7.21375 8 8 C5 10 5 10 2 10 C1.566875 9.484375 1.13375 8.96875 0.6875 8.4375 C0.130625 7.963125 -0.42625 7.48875 -1 7 C-4.83266292 7.14090084 -4.83266292 7.14090084 -8 9 C-8.25003964 12.45821402 -8.25003964 12.45821402 -8 16 C-5.67814039 18.32185961 -4.32662721 18.5749226 -1.1875 19.375 C4.39748396 20.99255299 7.60599372 22.83688681 10.8125 27.8125 C12.62116798 32.66734564 12.62954776 36.25125622 10.875 41.125 C8.07984174 45.41090933 4.95224283 48.34925239 0 50 C-6.15841333 50.50478798 -9.03218348 50.02156575 -14 46 C-14.66 45.34 -15.32 44.68 -16 44 C-15.625 41.875 -15.625 41.875 -15 40 C-13.1875 39.3125 -13.1875 39.3125 -11 39 C-10.32904297 39.71929687 -10.32904297 39.71929687 -9.64453125 40.453125 C-7.52692602 42.4449817 -6.36798347 42.43272003 -3.5 42.4375 C0.06697198 42.29910499 0.06697198 42.29910499 3.0625 40.4375 C4.71262495 36.14717513 4.43632413 32.30897238 3 28 C0.63502493 27.15114483 0.63502493 27.15114483 -2.1875 26.625 C-8.21601489 25.12961514 -11.6410773 23.21671277 -15.375 18.125 C-16.75785693 13.42328643 -16.57576982 10.06928681 -14.25 5.75 C-9.96045922 0.50722793 -6.88327813 -0.96630635 0 0 Z " fill="#4B4B4B" transform="translate(307,391)"/>
<path d="M0 0 C2.79830457 1.03067325 4.5415505 2.19379221 7 4 C7.9375 6.25 7.9375 6.25 8 8 C6.02 8.66 4.04 9.32 2 10 C1.443125 9.2265625 1.443125 9.2265625 0.875 8.4375 C-1.02213922 6.6506947 -1.02213922 6.6506947 -4.125 7.25 C-6.87790841 7.70933524 -6.87790841 7.70933524 -8 9 C-8.25003964 12.45821402 -8.25003964 12.45821402 -8 16 C-5.66806424 18.33193576 -4.34522225 18.54082275 -1.1875 19.3125 C4.79178323 21.01223852 7.57931746 23.86897619 11 29 C11.5728928 33.80634735 11.63642451 38.42568673 9.8125 42.9375 C5.72416576 47.58974241 2.41685773 49.80189691 -3.8125 50.3125 C-9.03528681 50.25489573 -12.03132572 47.70618438 -15.875 44.375 C-17 43 -17 43 -17 41 C-15.02 40.34 -13.04 39.68 -11 39 C-10.67 39.495 -10.34 39.99 -10 40.5 C-7.38820709 42.45884468 -5.14816903 42.48548537 -1.94140625 42.34375 C0.20517465 42.08849037 0.20517465 42.08849037 2.5 40.4375 C4.56021138 37.08965651 4.49125459 34.85985753 4 31 C1.73773816 27.96634396 -0.83634566 27.2205286 -4.375 26.125 C-9.18973474 24.46277015 -11.89843189 23.03203855 -15 19 C-16.2517847 15.24464589 -16.77373976 11.88289586 -16 8 C-11.93318327 1.45555339 -7.79899457 -1.02396871 0 0 Z " fill="#4A4A4A" transform="translate(842,391)"/>
<path d="M0 0 C0.763125 0.495 1.52625 0.99 2.3125 1.5 C2.3125 4.5 2.3125 4.5 1.15429688 5.92285156 C0.61869141 6.4072168 0.08308594 6.89158203 -0.46875 7.390625 C-1.05986572 7.93219238 -1.65098145 8.47375977 -2.26000977 9.03173828 C-2.89608154 9.59876465 -3.53215332 10.16579102 -4.1875 10.75 C-4.8280835 11.33120605 -5.46866699 11.91241211 -6.12866211 12.51123047 C-7.9747678 14.18195028 -9.83043964 15.84148009 -11.6875 17.5 C-12.94240234 18.64082031 -12.94240234 18.64082031 -14.22265625 19.8046875 C-17.53618357 22.7798392 -20.72810711 25.39657253 -24.6875 27.5 C-28.07498219 23.40679236 -28.31596346 19.47176931 -28.1640625 14.35546875 C-27.2315792 8.76821224 -24.2193165 4.83027886 -20.1171875 1.0546875 C-14.14826137 -3.06877355 -6.47056635 -2.63209479 0 0 Z " fill="#F9F9F9" transform="translate(807.6875,398.5)"/>
<path d="M0 0 C1.9375 0.80859375 1.9375 0.80859375 4.8125 2.30859375 C4.8125 5.30859375 4.8125 5.30859375 3.5625 6.82324219 C2.985 7.34950195 2.4075 7.87576172 1.8125 8.41796875 C1.17610596 9.00481445 0.53971191 9.59166016 -0.1159668 10.19628906 C-0.79957275 10.81084961 -1.48317871 11.42541016 -2.1875 12.05859375 C-2.87432861 12.68604492 -3.56115723 13.31349609 -4.26879883 13.95996094 C-6.23450492 15.75098412 -8.20996471 17.53065523 -10.1875 19.30859375 C-11.05761719 20.10265625 -11.92773438 20.89671875 -12.82421875 21.71484375 C-15.84511777 24.43077583 -18.47860004 26.59555063 -22.1875 28.30859375 C-25.39573984 24.29829394 -25.71491955 20.82362673 -25.5234375 15.8671875 C-24.84012491 10.66288814 -23.0739478 7.10667434 -19.26953125 3.48046875 C-13.19716029 -1.11948659 -7.32547685 -2.31537393 0 0 Z " fill="#F8F8F8" transform="translate(1004.1875,397.69140625)"/>
<path d="M0 0 C1.9140625 1.1015625 1.9140625 1.1015625 4.7265625 3.1015625 C3.57617169 4.25195331 2.42544516 5.40200957 1.2734375 6.55078125 C0.21615952 7.61072912 -0.83569745 8.67610483 -1.8828125 9.74609375 C-6.16282025 14.09481722 -10.64612833 18.1275205 -15.2734375 22.1015625 C-15.93085938 22.68679688 -16.58828125 23.27203125 -17.265625 23.875 C-17.88695312 24.42414063 -18.50828125 24.97328125 -19.1484375 25.5390625 C-19.70273438 26.03277344 -20.25703125 26.52648437 -20.828125 27.03515625 C-22.2734375 28.1015625 -22.2734375 28.1015625 -24.2734375 28.1015625 C-27.44089402 22.90693381 -26.86547044 16.97072856 -26.2734375 11.1015625 C-21.53247006 1.09285345 -10.61422436 -4.19462475 0 0 Z " fill="#F9F9F9" transform="translate(241.2734375,397.8984375)"/>
<path d="M0 0 C5.53125 2.0625 5.53125 2.0625 7 5 C6.53851562 5.40089844 6.07703125 5.80179687 5.6015625 6.21484375 C1.70471006 9.61111238 -2.16249997 13.03674533 -6 16.5 C-6.83660156 17.2528125 -7.67320313 18.005625 -8.53515625 18.78125 C-10.12889862 20.21587071 -11.72021657 21.65319134 -13.30859375 23.09375 C-14.01113281 23.7228125 -14.71367188 24.351875 -15.4375 25 C-16.05496094 25.556875 -16.67242188 26.11375 -17.30859375 26.6875 C-19 28 -19 28 -22 29 C-24.58189397 23.37147115 -24.66302335 18.09981481 -24 12 C-19.01480316 1.45439129 -10.88294201 -0.82296041 0 0 Z " fill="#FAFAFA" transform="translate(1466,399)"/>
<path d="M0 0 C1 3 1 3 0.33203125 5.15625 C-1 7 -1 7 -2.98828125 7.46875 C-3.75527344 7.4790625 -4.52226563 7.489375 -5.3125 7.5 C-9.68336083 7.78857535 -11.87455208 8.77688184 -15 12 C-16.58230808 15.16461615 -16.24157813 18.59079367 -16.31640625 22.0703125 C-16.33718735 22.86654022 -16.35796844 23.66276794 -16.37937927 24.48312378 C-16.44484149 27.03032685 -16.50374415 29.57763425 -16.5625 32.125 C-16.6056884 33.85027127 -16.64930279 35.57553193 -16.69335938 37.30078125 C-16.80051945 41.53374685 -16.90179623 45.76681753 -17 50 C-19.31 50 -21.62 50 -24 50 C-24 34.16 -24 18.32 -24 2 C-22.02 2.99 -22.02 2.99 -20 4 C-17.30297984 3.73029798 -15.72199763 2.8345224 -13.375 1.4375 C-8.84272526 -0.49291331 -4.85562393 -0.25909456 0 0 Z " fill="#4E4E4E" transform="translate(1558,392)"/>
<path d="M0 0 C-0.875 4.875 -0.875 4.875 -2 6 C-3.61684194 6.37088847 -5.24399077 6.69743597 -6.875 7 C-9.69737213 7.52662337 -12.27018179 8.0900606 -15 9 C-17.35804927 13.16846414 -17.34112709 17.47351735 -17.4140625 22.14453125 C-17.43342865 22.91431808 -17.4527948 23.68410492 -17.4727478 24.47721863 C-17.53225623 26.92220171 -17.57881295 29.36723262 -17.625 31.8125 C-17.66320631 33.47593134 -17.70225957 35.13934347 -17.7421875 36.80273438 C-17.83793383 40.86833241 -17.92207009 44.93402301 -18 49 C-20.31 49 -22.62 49 -25 49 C-25 33.16 -25 17.32 -25 1 C-23 2 -21 3 -19 4 C-18.278125 3.34 -17.55625 2.68 -16.8125 2 C-11.89646413 -1.38051862 -5.68858582 -0.30384138 0 0 Z " fill="#4D4D4D" transform="translate(286,391)"/>
<path d="M0 0 C2.701875 -0.061875 5.40375 -0.12375 8.1875 -0.1875 C9.02949951 -0.21481201 9.87149902 -0.24212402 10.73901367 -0.27026367 C15.32319574 -0.32093869 18.29360873 0.00557089 22 3 C24.4915904 6.7373856 24.45793285 8.57331583 24 13 C22.20437595 15.75329021 20.94745078 17.52627461 18 19 C16.62451844 19.08308638 15.24514204 19.10736016 13.8671875 19.09765625 C13.14128418 19.09515869 12.41538086 19.09266113 11.66748047 19.09008789 C10.74596191 19.08098389 9.82444336 19.07187988 8.875 19.0625 C5.94625 19.041875 3.0175 19.02125 0 19 C0 12.73 0 6.46 0 0 Z " fill="#FBFBFB" transform="translate(17,366)"/>
<path d="M0 0 C1.17046875 0.01804687 2.3409375 0.03609375 3.546875 0.0546875 C4.88492187 0.08949219 4.88492187 0.08949219 6.25 0.125 C5.59 2.105 4.93 4.085 4.25 6.125 C3.65832031 6.15078125 3.06664062 6.1765625 2.45703125 6.203125 C-2.7859263 6.57945474 -5.98949994 7.13659084 -9.75 11.125 C-12.22011096 14.81431137 -12.09548226 18.66025297 -12.1640625 22.953125 C-12.18342865 23.70213074 -12.2027948 24.45113647 -12.2227478 25.22283936 C-12.28235716 27.60677836 -12.32885354 29.99076614 -12.375 32.375 C-12.41319701 33.99481231 -12.45224975 35.61460468 -12.4921875 37.234375 C-12.58804313 41.19775406 -12.67214246 45.16122819 -12.75 49.125 C-14.73 49.125 -16.71 49.125 -18.75 49.125 C-18.75 33.285 -18.75 17.445 -18.75 1.125 C-17.43 2.115 -16.11 3.105 -14.75 4.125 C-14.1725 3.83625 -13.595 3.5475 -13 3.25 C-12.2575 2.87875 -11.515 2.5075 -10.75 2.125 C-10.1828125 1.774375 -9.615625 1.42375 -9.03125 1.0625 C-5.94021106 -0.20778998 -3.3278614 -0.06655723 0 0 Z " fill="#434343" transform="translate(1044.75,390.875)"/>
<path d="M0 0 C-0.875 4.875 -0.875 4.875 -2 6 C-4.4491612 6.37644515 -6.90035147 6.70618139 -9.359375 7.01171875 C-13.01598989 8.38024474 -15.05778094 10.70364935 -17 14 C-17.49770891 16.93908076 -17.72271341 19.31277675 -17.70703125 22.2421875 C-17.72215256 23.01055939 -17.73727386 23.77893127 -17.75285339 24.57058716 C-17.79556994 27.00569369 -17.80455205 29.4395569 -17.8125 31.875 C-17.83565705 33.53388685 -17.86102491 35.1927444 -17.88867188 36.8515625 C-17.95136468 40.90115078 -17.98382525 44.9499696 -18 49 C-19.98 49 -21.96 49 -24 49 C-24 33.49 -24 17.98 -24 2 C-22.02 2.66 -20.04 3.32 -18 4 C-17.13375 3.38125 -16.2675 2.7625 -15.375 2.125 C-10.40542816 -1.00398967 -5.72467371 -0.33347614 0 0 Z " fill="#434343" transform="translate(141,391)"/>
<path d="M0 0 C-0.875 4.875 -0.875 4.875 -2 6 C-4.4491612 6.37644515 -6.90035147 6.70618139 -9.359375 7.01171875 C-13.01598989 8.38024474 -15.05778094 10.70364935 -17 14 C-17.49770891 16.93908076 -17.72271341 19.31277675 -17.70703125 22.2421875 C-17.72215256 23.01055939 -17.73727386 23.77893127 -17.75285339 24.57058716 C-17.79556994 27.00569369 -17.80455205 29.4395569 -17.8125 31.875 C-17.83565705 33.53388685 -17.86102491 35.1927444 -17.88867188 36.8515625 C-17.95136468 40.90115078 -17.98382525 44.9499696 -18 49 C-19.98 49 -21.96 49 -24 49 C-24 33.49 -24 17.98 -24 2 C-22.02 2.66 -20.04 3.32 -18 4 C-17.13375 3.38125 -16.2675 2.7625 -15.375 2.125 C-10.40542816 -1.00398967 -5.72467371 -0.33347614 0 0 Z " fill="#434343" transform="translate(661,391)"/>
<path d="M0 0 C2.31 0 4.62 0 7 0 C7 16.17 7 32.34 7 49 C4.69 49 2.38 49 0 49 C0 32.83 0 16.66 0 0 Z " fill="#515151" transform="translate(1364,393)"/>
<path d="M0 0 C2.31 0 4.62 0 7 0 C7 15.84 7 31.68 7 48 C4.69 48 2.38 48 0 48 C0 32.16 0 16.32 0 0 Z " fill="#4F4F4F" transform="translate(623,392)"/>
<path d="M0 0 C1.98 0 3.96 0 6 0 C6 15.84 6 31.68 6 48 C4.02 48 2.04 48 0 48 C0 32.16 0 16.32 0 0 Z " fill="#424242" transform="translate(859,392)"/>
<path d="M0 0 C2.97 1.65 5.94 3.3 9 5 C8.01 5.495 8.01 5.495 7 6 C5.02 5.34 3.04 4.68 1 4 C1.33 16.21 1.66 28.42 2 41 C1.34 41 0.68 41 0 41 C0 27.47 0 13.94 0 0 Z " fill="#F1CC39" transform="translate(1176,23)"/>
<path d="M0 0 C2.31 0 4.62 0 7 0 C7 2.64 7 5.28 7 8 C4.69 8 2.38 8 0 8 C0 5.36 0 2.72 0 0 Z " fill="#636363" transform="translate(1364,374)"/>
<path d="M0 0 C2.31 0 4.62 0 7 0 C7 2.31 7 4.62 7 7 C4.69 7 2.38 7 0 7 C0 4.69 0 2.38 0 0 Z " fill="#515151" transform="translate(623,373)"/>
<path d="M0 0 C-0.33 0.66 -0.66 1.32 -1 2 C-12.22 2 -23.44 2 -35 2 C-35 1.67 -35 1.34 -35 1 C-34.30962646 0.97494385 -33.61925293 0.9498877 -32.90795898 0.92407227 C-29.75098591 0.8073434 -26.59425543 0.68496822 -23.4375 0.5625 C-22.35146484 0.52318359 -21.26542969 0.48386719 -20.14648438 0.44335938 C-13.48849047 0.1927004 -13.48849047 0.1927004 -6.875 -0.5625 C-4.14970492 -0.97721882 -2.56510399 -0.92343744 0 0 Z " fill="#FCEEA6" transform="translate(1263,79)"/>
<path d="M0 0 C1.98 0 3.96 0 6 0 C6 2.31 6 4.62 6 7 C4.02 7 2.04 7 0 7 C0 4.69 0 2.38 0 0 Z " fill="#444444" transform="translate(859,373)"/>
<path d="M0 0 C0 3.63 0 7.26 0 11 C-0.66 11 -1.32 11 -2 11 C-2.33 8.69 -2.66 6.38 -3 4 C-4.32 3.67 -5.64 3.34 -7 3 C-2.25 0 -2.25 0 0 0 Z " fill="#F5CF38" transform="translate(1298,71)"/>
<path d="M0 0 C2.64 0 5.28 0 8 0 C8 0.66 8 1.32 8 2 C9.134375 2.12375 10.26875 2.2475 11.4375 2.375 C12.613125 2.58125 13.78875 2.7875 15 3 C15.33 3.66 15.66 4.32 16 5 C10.53135543 3.98408579 5.23609987 2.92908943 0 1 C0 0.67 0 0.34 0 0 Z " fill="#FEF6BB" transform="translate(1195,79)"/>
<path d="M0 0 C3.96 0.33 7.92 0.66 12 1 C12 1.66 12 2.32 12 3 C12.66 3.33 13.32 3.66 14 4 C9.03083364 3.48594831 4.70973649 2.76615118 0 1 C0 0.67 0 0.34 0 0 Z " fill="#F5D345" transform="translate(1201,94)"/>
</svg>
