<svg width="64" height="64" viewBox="0 0 64 64" fill="none" xmlns="http://www.w3.org/2000/svg">
<g clip-path="url(#clip0_831_189)">
<path d="M61.7316 25.4909C61.9358 29.5667 61.6286 33.6523 60.8176 37.6524C59.3317 33.4384 56.1841 27.1824 49.9384 23.1979C43.5642 19.1319 35.481 18.4209 26.0007 21.0606C23.3571 21.5084 20.6549 21.4762 18.023 20.9649C17.9673 20.9605 17.9112 20.9605 17.855 20.9649C17.7754 20.9556 17.6948 20.9556 17.6153 20.9649C17.5391 20.9796 17.4649 21.0025 17.3936 21.0323C17.3364 21.0455 17.2803 21.0626 17.2256 21.0836C14.2665 22.6915 7.85963 27.4895 7.80689 38.8672C4.82634 34.6142 2.36436 22.0897 5.79316 9.01762C6.46408 9.83796 7.00414 13.6486 7.80689 14.3405C9.58115 21.0836 24.3732 16.3535 31.5082 13.2675C48.2162 7.33028 57.086 16.5385 61.5842 25.3068C61.6262 25.3737 61.6755 25.4353 61.7316 25.4909ZM30.6669 11.1336C25.2727 13.4652 17.6553 16.7509 11.4388 14.9965C8.45395 10.2701 11.4388 8.07829 13.9101 1.48198C15.0986 3.46934 17.2002 6.17693 20.1285 6.87422C22.3981 7.41378 24.6999 6.68329 26.9695 4.70277C34.1606 -1.57864 44.2912 -1.56595 52.1669 4.73109C56.7999 8.60473 59.9264 13.9818 61.0002 19.9249C55.9703 12.7884 46.6321 5.46158 30.6669 11.1336Z" fill="#FFCC01"/>
<path d="M15.5525 60.447C19.1034 59.7384 22.0873 57.3473 23.5527 54.0366C23.7217 53.6855 23.8808 53.3291 24.0386 52.9726C24.3784 52.1069 24.8213 51.2846 25.3574 50.5243C25.9463 49.7367 26.8697 49.2684 27.8536 49.2592C29.5719 49.3138 31.1901 50.0824 32.3176 51.3808C32.9612 52.0424 33.4778 52.8174 33.8411 53.6665C33.7361 54.27 34.1262 54.8491 34.7249 54.9785C35.324 55.1084 35.9187 54.7427 36.073 54.1499C36.6937 52.1953 38.0672 50.5683 39.89 49.6283C40.916 49.0541 42.1474 48.9779 43.2368 49.4203C44.6079 50.0116 45.4278 51.7568 46.1558 53.2973L46.4903 53.9976C47.3478 56.0176 48.7545 57.7565 50.551 59.0163C51.5886 59.6545 52.7258 60.1125 53.9158 60.3718L54.0472 60.4025L54.3421 60.4709C50.6599 63.0725 42.833 67.0174 35.7586 60.2013C35.3162 59.7746 34.615 59.7746 34.1726 60.2013C27.0582 67.0506 19.2142 63.0549 15.5525 60.447Z" fill="#FFCC01"/>
</g>
<defs>
<clipPath id="clip0_831_189">
<rect width="64" height="64" fill="white"/>
</clipPath>
</defs>
</svg>
